<svg width="20" height="17" viewBox="0 0 20 17" fill="none" xmlns="http://www.w3.org/2000/svg">
<path d="M10.0004 5.7998V15.9998M10.0004 5.7998C10.0004 4.09569 10.1078 2.21639 8.36221 1.32698C7.72047 1 6.8802 1 5.20004 1H2.60004C1.36437 1 1.00043 1.4366 1.00043 2.6001V11.4001C1.00043 11.9678 0.964657 12.5947 1.54633 12.8911C1.76003 13 2.03944 13 2.5984 13H5.43116C7.80824 13 8.69113 14.0363 10.0004 15.9998M10.0004 5.7998C10.0004 4.09608 9.89276 2.21629 11.6381 1.32698C12.2799 1 13.1201 1 14.8002 1H17.4002C18.6356 1 19.0004 1.43643 19.0004 2.6001V11.4001C19.0004 11.967 19.0358 12.5951 18.4547 12.8911C18.241 13 17.9614 13 17.4025 13H14.5698C12.1922 13 11.3098 14.0356 10.0004 15.9998" stroke="#444444" stroke-width="1.5" stroke-linecap="round" stroke-linejoin="round"/>
</svg>
