<svg width="31" height="31" viewBox="0 0 31 31" fill="none" xmlns="http://www.w3.org/2000/svg">
<path opacity="0.6" d="M6.28692 31C5.13769 31 4.08505 30.7199 3.12897 30.1598C2.1729 29.59 1.40997 28.8271 0.840187 27.871C0.280062 26.915 0 25.8623 0 24.7131C0 23.5542 0.280062 22.4967 0.840187 21.5407C1.40997 20.5846 2.1729 19.8217 3.12897 19.2519C4.08505 18.6821 5.13769 18.3972 6.28692 18.3972H9.64766V12.5738H6.28692C5.13769 12.5738 4.08505 12.2938 3.12897 11.7336C2.1729 11.1639 1.40997 10.4058 0.840187 9.45935C0.280062 8.50327 0 7.4458 0 6.28692C0 5.12804 0.280062 4.07539 0.840187 3.12897C1.40997 2.1729 2.1729 1.4148 3.12897 0.854675C4.08505 0.284892 5.13769 0 6.28692 0C7.44579 0 8.50327 0.284892 9.45935 0.854675C10.4154 1.4148 11.1783 2.1729 11.7481 3.12897C12.3179 4.07539 12.6028 5.12804 12.6028 6.28692V9.61869H18.4262V6.28692C18.4262 5.12804 18.7062 4.07539 19.2664 3.12897C19.8361 2.1729 20.5942 1.4148 21.5407 0.854675C22.4967 0.284892 23.5542 0 24.7131 0C25.872 0 26.9246 0.284892 27.871 0.854675C28.8271 1.4148 29.5852 2.1729 30.1453 3.12897C30.7151 4.07539 31 5.12804 31 6.28692C31 7.4458 30.7151 8.50327 30.1453 9.45935C29.5852 10.4058 28.8271 11.1639 27.871 11.7336C26.9246 12.2938 25.872 12.5738 24.7131 12.5738H21.3813V18.3972H24.7131C25.872 18.3972 26.9246 18.6821 27.871 19.2519C28.8271 19.8217 29.5852 20.5846 30.1453 21.5407C30.7151 22.4967 31 23.5542 31 24.7131C31 25.8623 30.7151 26.915 30.1453 27.871C29.5852 28.8271 28.8271 29.59 27.871 30.1598C26.9246 30.7199 25.872 31 24.7131 31C23.5542 31 22.4967 30.7199 21.5407 30.1598C20.5942 29.59 19.8361 28.8271 19.2664 27.871C18.7062 26.915 18.4262 25.8623 18.4262 24.7131V21.3523H12.6028V24.7131C12.6028 25.8623 12.3179 26.915 11.7481 27.871C11.1783 28.8271 10.4154 29.59 9.45935 30.1598C8.50327 30.7199 7.44579 31 6.28692 31ZM6.28692 28.0449C6.90498 28.0449 7.46511 27.8952 7.96729 27.5958C8.47913 27.2964 8.88473 26.8956 9.18411 26.3935C9.49315 25.8816 9.64766 25.3215 9.64766 24.7131V21.3523H6.28692C5.6785 21.3523 5.11838 21.5069 4.60654 21.8159C4.10436 22.1153 3.70358 22.5209 3.40421 23.0327C3.10483 23.5349 2.95514 24.095 2.95514 24.7131C2.95514 25.3215 3.10483 25.8816 3.40421 26.3935C3.70358 26.8956 4.10436 27.2964 4.60654 27.5958C5.11838 27.8952 5.6785 28.0449 6.28692 28.0449ZM6.28692 9.61869H9.64766V6.28692C9.64766 5.66885 9.49315 5.10872 9.18411 4.60654C8.88473 4.10436 8.47913 3.70358 7.96729 3.40421C7.46511 3.10483 6.90498 2.95514 6.28692 2.95514C5.6785 2.95514 5.11838 3.10483 4.60654 3.40421C4.10436 3.70358 3.70358 4.10436 3.40421 4.60654C3.10483 5.10872 2.95514 5.66885 2.95514 6.28692C2.95514 6.90499 3.10483 7.46994 3.40421 7.98178C3.70358 8.48396 4.10436 8.88474 4.60654 9.18411C5.11838 9.47383 5.6785 9.61869 6.28692 9.61869ZM21.3813 9.61869H24.7131C25.3312 9.61869 25.8913 9.47383 26.3935 9.18411C26.8956 8.88474 27.2964 8.48396 27.5958 7.98178C27.8952 7.46994 28.0449 6.90499 28.0449 6.28692C28.0449 5.66885 27.8952 5.10872 27.5958 4.60654C27.2964 4.10436 26.8956 3.70358 26.3935 3.40421C25.8913 3.10483 25.3312 2.95514 24.7131 2.95514C24.095 2.95514 23.5301 3.10483 23.0182 3.40421C22.516 3.70358 22.1153 4.10436 21.8159 4.60654C21.5262 5.10872 21.3813 5.66885 21.3813 6.28692V9.61869ZM24.7131 28.0449C25.3312 28.0449 25.8913 27.8952 26.3935 27.5958C26.8956 27.2964 27.2964 26.8956 27.5958 26.3935C27.8952 25.8816 28.0449 25.3215 28.0449 24.7131C28.0449 24.095 27.8952 23.5349 27.5958 23.0327C27.2964 22.5209 26.8956 22.1153 26.3935 21.8159C25.8913 21.5069 25.3312 21.3523 24.7131 21.3523H21.3813V24.7131C21.3813 25.3215 21.5262 25.8816 21.8159 26.3935C22.1153 26.8956 22.516 27.2964 23.0182 27.5958C23.5301 27.8952 24.095 28.0449 24.7131 28.0449ZM12.6028 18.3972H18.4262V12.5738H12.6028V18.3972Z" fill="#020617"/>
</svg>
