<svg width="41" height="41" viewBox="0 0 41 41" fill="none" xmlns="http://www.w3.org/2000/svg">
<g clip-path="url(#clip0_59_23014)">
<path d="M37.1562 0.960963H3.84375C3.08791 0.953271 2.35989 1.24574 1.81944 1.77418C1.27898 2.30263 0.97023 3.02389 0.960938 3.77971V37.2267C0.971911 37.9814 1.2814 38.7011 1.82167 39.2281C2.36195 39.7552 3.08901 40.0468 3.84375 40.0391H37.1562C37.9121 40.0451 38.6397 39.7516 39.1798 39.2228C39.72 38.6941 40.0289 37.973 40.0391 37.2171V3.7701C40.0256 3.0165 39.7152 2.29867 39.1754 1.77265C38.6356 1.24663 37.9099 0.954935 37.1562 0.960963Z" fill="#444444"/>
<path d="M6.74543 15.6088H12.5463V34.2734H6.74543V15.6088ZM9.64746 6.31976C10.3128 6.31976 10.9632 6.5171 11.5163 6.8868C12.0695 7.25651 12.5006 7.78197 12.755 8.39671C13.0095 9.01146 13.0759 9.68787 12.9459 10.3404C12.8158 10.9929 12.4952 11.5921 12.0245 12.0624C11.5538 12.5326 10.9543 12.8527 10.3016 12.9821C9.64902 13.1115 8.97267 13.0444 8.35817 12.7894C7.74367 12.5343 7.21862 12.1028 6.84944 11.5493C6.48026 10.9957 6.28355 10.3452 6.28418 9.67984C6.28503 8.7884 6.63975 7.93376 7.27039 7.30371C7.90104 6.67367 8.75602 6.31976 9.64746 6.31976ZM16.185 15.6088H21.7457V18.1713H21.8225C22.5977 16.7043 24.4875 15.1572 27.3095 15.1572C33.184 15.1444 34.2731 19.0105 34.2731 24.0234V34.2734H28.4722V25.1926C28.4722 23.0305 28.4338 20.2469 25.4581 20.2469C22.4824 20.2469 21.9763 22.6044 21.9763 25.0516V34.2734H16.185V15.6088Z" fill="white"/>
</g>
<defs>
<clipPath id="clip0_59_23014">
<rect width="41" height="41" fill="white"/>
</clipPath>
</defs>
</svg>
