<svg width="7" height="12" viewBox="0 0 7 12" fill="none" xmlns="http://www.w3.org/2000/svg">
<path fill-rule="evenodd" clip-rule="evenodd" d="M0.131802 3.13188C-0.043934 3.30762 -0.043934 3.59254 0.131802 3.76828C0.307538 3.94401 0.592462 3.94401 0.768198 3.76828L3.45008 1.0864L6.13196 3.76828C6.3077 3.94401 6.59262 3.94401 6.76836 3.76828C6.94409 3.59254 6.94409 3.30762 6.76836 3.13188L3.76828 0.131802C3.68389 0.0474105 3.56943 0 3.45008 0C3.33073 1.49012e-08 3.21627 0.0474105 3.13188 0.131802L0.131802 3.13188ZM6.76836 8.43507C6.94409 8.25933 6.94409 7.97441 6.76836 7.79867C6.59262 7.62293 6.3077 7.62293 6.13196 7.79867L3.45008 10.4806L0.768199 7.79867C0.592463 7.62293 0.307539 7.62293 0.131803 7.79867C-0.0439329 7.97441 -0.0439329 8.25933 0.131803 8.43507L3.13188 11.4351C3.30762 11.6109 3.59254 11.6109 3.76828 11.4351L6.76836 8.43507Z" fill="#71717A"/>
</svg>
