<svg width="28" height="28" viewBox="0 0 28 28" fill="none" xmlns="http://www.w3.org/2000/svg">
<path fill-rule="evenodd" clip-rule="evenodd" d="M1.5 1.75C1.5 1.61193 1.61193 1.5 1.75 1.5H9.75V0H1.75C0.783501 0 0 0.783503 0 1.75V25.75C0 26.7165 0.783503 27.5 1.75 27.5H25.75C26.7165 27.5 27.5 26.7165 27.5 25.75V17.75H26V25.75C26 25.8881 25.8881 26 25.75 26H1.75C1.61193 26 1.5 25.8881 1.5 25.75V1.75ZM16.75 0C16.3358 0 16 0.335786 16 0.75C16 1.16421 16.3358 1.5 16.75 1.5H23.978L9.21157 16.7279C8.92322 17.0253 8.93053 17.5001 9.22789 17.7884C9.52525 18.0768 10.0001 18.0695 10.2884 17.7721L25 2.6008V9.75C25 10.1642 25.3358 10.5 25.75 10.5C26.1642 10.5 26.5 10.1642 26.5 9.75V0.75C26.5 0.335786 26.1642 0 25.75 0H16.75Z" fill="#444444"/>
</svg>
