<svg width="36" height="36" viewBox="0 0 36 36" fill="none" xmlns="http://www.w3.org/2000/svg">
<path d="M26.0355 9.9645L31.5 4.5M26.0355 9.9645C28.8522 11.7649 30.9285 14.1804 32.1756 15.8916C32.5833 16.451 32.7872 16.7308 32.9275 17.2719C33.0242 17.6449 33.0242 18.3551 32.9275 18.7281C32.7872 19.2692 32.5833 19.549 32.1756 20.1084C29.9415 23.174 25.0461 28.5 18 28.5C14.887 28.5 12.1939 27.4604 9.96449 26.0355M26.0355 9.9645L20.1213 15.8787M4.49997 31.5L9.96449 26.0355M9.96449 26.0355L15.8786 20.1213M5.79128 22.5C4.99797 21.6445 4.34025 20.8162 3.82441 20.1084C3.4167 19.549 3.21285 19.2692 3.07253 18.7281C2.97582 18.3551 2.97582 17.6449 3.07253 17.2719C3.21285 16.7308 3.4167 16.451 3.82441 15.8916C6.05853 12.826 10.9539 7.5 18 7.5C18.8856 7.5 19.7373 7.58414 20.5539 7.73736M20.1213 15.8787C20.6642 16.4216 21 17.1716 21 18C21 19.6569 19.6568 21 18 21C17.1715 21 16.4215 20.6642 15.8786 20.1213M20.1213 15.8787L15.8786 20.1213" stroke="#020617" stroke-width="1.5" stroke-linecap="round" stroke-linejoin="round"/>
</svg>
