<svg width="41" height="41" viewBox="0 0 41 41" fill="none" xmlns="http://www.w3.org/2000/svg">
<path d="M36.3969 14.5918H35.0208V14.5209H19.6458V21.3542H29.3005C27.892 25.332 24.1072 28.1875 19.6458 28.1875C13.9853 28.1875 9.39583 23.5981 9.39583 17.9375C9.39583 12.277 13.9853 7.68752 19.6458 7.68752C22.2587 7.68752 24.6359 8.67323 26.4459 10.2833L31.2779 5.45131C28.2268 2.60779 24.1456 0.854187 19.6458 0.854187C10.2116 0.854187 2.5625 8.50325 2.5625 17.9375C2.5625 27.3718 10.2116 35.0209 19.6458 35.0209C29.0801 35.0209 36.7292 27.3718 36.7292 17.9375C36.7292 16.7921 36.6113 15.674 36.3969 14.5918Z" fill="#444444"/>
<path d="M4.53223 9.98608L10.145 14.1023C11.6637 10.3423 15.3417 7.68752 19.6458 7.68752C22.2587 7.68752 24.6359 8.67323 26.4459 10.2833L31.2779 5.45131C28.2268 2.60779 24.1456 0.854187 19.6458 0.854187C13.0841 0.854187 7.39368 4.55871 4.53223 9.98608Z" fill="#444444"/>
<path d="M19.6459 35.0209C24.0586 35.0209 28.068 33.3322 31.0995 30.586L25.8122 26.1119C24.0394 27.4601 21.8731 28.1893 19.6459 28.1875C15.2026 28.1875 11.4297 25.3543 10.0084 21.4003L4.4375 25.6925C7.26479 31.225 13.0065 35.0209 19.6459 35.0209Z" fill="#444444"/>
<path d="M36.3966 14.5918H35.0205V14.5209H19.6455V21.3542H29.3002C28.6264 23.2474 27.4128 24.9017 25.8092 26.1128L25.8117 26.1111L31.099 30.5852C30.7249 30.9251 36.7288 26.4792 36.7288 17.9375C36.7288 16.7921 36.611 15.674 36.3966 14.5918Z" fill="#444444"/>
</svg>
