<svg width="26" height="26" viewBox="0 0 26 26" fill="none" xmlns="http://www.w3.org/2000/svg">
<path d="M8.875 1.03857V24.9614M17.125 1.03857V24.9614M1.03857 17.125H24.9614M1.03857 8.875H24.9614M13 25C7.34315 25 4.51472 25 2.75736 23.2426C1 21.4853 1 18.6569 1 13C1 7.34315 1 4.51472 2.75736 2.75736C4.51472 1 7.34315 1 13 1C18.6569 1 21.4853 1 23.2426 2.75736C25 4.51472 25 7.34315 25 13C25 18.6569 25 21.4853 23.2426 23.2426C21.4853 25 18.6569 25 13 25Z" stroke="#020617" stroke-width="1.5" stroke-linecap="round" stroke-linejoin="round"/>
</svg>
