<svg width="42" height="42" viewBox="0 0 42 42" fill="none" xmlns="http://www.w3.org/2000/svg">
<path fill-rule="evenodd" clip-rule="evenodd" d="M19.0721 4.61176C18.5417 8.0617 18.7119 10.8786 18.9522 14.854C18.996 15.5799 19.0422 16.3445 19.0869 17.1586C19.1275 17.8978 18.5856 18.5408 17.8503 18.6261C17.1149 18.7113 16.4403 18.2094 16.3107 17.4805L16.0935 16.2595C15.8037 14.4628 15.3543 11.9135 14.499 9.65275C13.6152 7.31674 12.4565 5.7154 11.0166 5.20924C10.2202 4.9309 9.57365 5.15981 9.12471 5.62945C8.64531 6.13095 8.39371 6.91782 8.57598 7.71117C9.00129 9.36388 9.64998 10.9668 10.3558 12.6505C10.4187 12.8004 10.4821 12.9512 10.5458 13.1027C11.1875 14.6288 11.8617 16.2322 12.3664 17.8943L12.3678 17.8987C12.774 19.2524 13.0385 20.3266 13.2468 21.1726C13.3294 21.5079 13.4031 21.8073 13.4733 22.0741C13.6299 22.669 13.3798 23.2964 12.8569 23.6205C12.334 23.9445 11.6609 23.8893 11.1978 23.4843C10.4654 22.8438 9.84242 22.1979 9.29129 21.6104C9.17396 21.4854 9.06128 21.3645 8.95215 21.2474C8.53418 20.7991 8.16836 20.4067 7.79378 20.0488C6.88811 19.1834 6.11555 18.7041 5.05678 18.6023L5.04948 18.6016C4.3717 18.5329 3.95968 18.6604 3.68957 18.8335C3.41358 19.0105 3.13607 19.3316 2.90637 19.9144C2.73483 20.3978 2.84283 21.3636 3.34053 22.3135L3.35279 22.3369C3.92281 23.4766 4.88571 24.6844 6.10836 26.0204C6.7131 26.6811 7.36082 27.3518 8.03458 28.0488L8.06346 28.0787C8.7237 28.7618 9.40736 29.469 10.0724 30.1916C12.401 32.7217 14.7762 35.7105 15.296 39.2H32.2247C32.3786 34.8189 33.252 31.5504 34.4055 28.377C34.8474 27.1611 35.3142 25.9955 35.7916 24.8032C36.7076 22.5159 37.6629 20.1302 38.5578 17.1031C39.4773 13.9926 39.2276 12.2369 38.812 11.3115C38.4081 10.412 37.7763 10.13 37.4688 10.069C36.7872 9.93366 36.508 10.1065 36.3158 10.3012C36.028 10.5929 35.756 11.1516 35.5383 12.0475C35.3269 12.9177 35.211 13.9025 35.093 14.91L35.0838 14.988C34.9791 15.8828 34.8619 16.8845 34.6265 17.6427C34.5478 17.9396 34.3897 18.2114 34.1545 18.4111C33.9872 18.5531 33.6296 18.7829 33.1269 18.7407C32.319 18.6729 31.8398 17.98 31.8223 17.2139C31.7973 16.1127 31.8876 15.0042 31.9411 13.905C32.0404 11.8621 32.136 9.89436 31.9891 7.93575L31.9881 7.92215C31.8969 6.52392 30.9385 5.60638 29.9624 5.38385C29.4859 5.27522 29.0337 5.33683 28.6575 5.55381C28.2887 5.76649 27.8754 6.1969 27.6011 7.03904L27.5981 7.04834C27.4831 7.39311 27.3648 8.05709 27.2614 8.99473C27.1617 9.89917 27.0859 10.9558 27.0248 12.0237C26.9725 12.9369 26.9304 13.8835 26.8926 14.7334C26.8448 15.8068 26.8039 16.726 26.7581 17.229C26.7399 17.4289 26.6827 17.6258 26.5864 17.802C26.5264 17.9119 26.2116 18.5065 25.3994 18.5316C24.5821 18.5568 24.1917 17.9216 24.128 17.8057C23.9582 17.4972 23.9423 17.1306 23.9335 16.7799C23.9257 16.4658 23.9206 16.0103 23.9173 15.5335C23.9106 14.5763 23.9106 13.4937 23.9106 13.1866C23.9106 10.264 23.9079 7.4304 23.6524 4.60243C23.4975 3.47555 22.5762 2.81274 21.4025 2.80015C20.2276 2.78754 19.2621 3.43571 19.0721 4.61176ZM26.3546 3.81277C25.8016 1.25576 23.518 0.0226891 21.4325 0.000312311C19.2211 -0.0234166 16.7657 1.30447 16.3066 4.17303L16.3053 4.18134C16.1911 4.92353 16.1068 5.64145 16.0469 6.34626C15.1042 4.6862 13.7938 3.21702 11.9438 2.56721C10.0429 1.90207 8.25817 2.48384 7.10072 3.69465C5.97602 4.87118 5.44469 6.62878 5.8533 8.36488L5.85995 8.39196C6.3418 10.2706 7.06751 12.0488 7.77357 13.733C7.83522 13.8801 7.89668 14.0263 7.95785 14.1719C8.4603 15.3676 8.94301 16.5163 9.34879 17.6752C8.29972 16.748 7.05433 15.9823 5.32815 15.8155C4.16863 15.6986 3.09136 15.891 2.17827 16.4764C1.27228 17.0573 0.674292 17.9313 0.292138 18.9114L0.282845 18.9359C-0.284737 20.476 0.186142 22.3204 0.85412 23.6011C1.60679 25.1013 2.78951 26.5413 4.04283 27.9108C4.6777 28.6044 5.35221 29.3026 6.02133 29.9948L6.0395 30.0136C6.70708 30.7043 7.37049 31.3906 8.01216 32.0878C10.6666 34.9719 12.6005 37.6969 12.6005 40.6C12.6005 41.3732 13.2273 42 14.0005 42H33.6005C34.3737 42 35.0005 41.3732 35.0005 40.6C35.0005 35.8994 35.8463 32.6094 37.037 29.3335C37.4232 28.271 37.8608 27.1762 38.3233 26.0189C39.267 23.6578 40.3148 21.0363 41.2429 17.8969C42.2681 14.4291 42.157 11.9253 41.3663 10.1645C40.5639 8.37782 39.1438 7.54684 38.014 7.32256C36.7578 7.07319 35.6632 7.29331 34.7955 7.92627C34.7911 7.86164 34.7866 7.79711 34.7817 7.73269C34.6049 5.06939 32.7344 3.14398 30.5848 2.6539C29.4974 2.406 28.3115 2.5211 27.2587 3.12827C26.9323 3.31649 26.6299 3.54543 26.3546 3.81277Z" fill="#09090B"/>
</svg>
