<svg width="62" height="41" viewBox="0 0 62 41" fill="none" xmlns="http://www.w3.org/2000/svg">
<g clip-path="url(#clip0_59_23009)">
<path d="M6.64272 26.8864C6.64272 29.2301 7.15826 31.0296 7.83188 32.1181C8.71522 33.544 10.0324 34.148 11.3756 34.148C13.1079 34.148 14.6927 33.7188 17.7466 29.5032C20.1934 26.1244 23.0764 21.3814 25.0161 18.408L28.3013 13.3706C30.5833 9.87213 33.2244 5.98312 36.253 3.3469C38.7248 1.19523 41.3919 0 44.0758 0C48.5821 0 52.8744 2.60626 56.1596 7.49437C59.7547 12.8476 61.5 19.5906 61.5 26.5491C61.5 30.6857 60.6832 33.7253 59.293 36.1268C57.9498 38.4491 55.332 40.7694 50.9285 40.7694V34.148C54.699 34.148 55.64 30.6901 55.64 26.7327C55.64 21.0934 54.3225 14.8348 51.4205 10.3632C49.3607 7.19107 46.6917 5.25304 43.7553 5.25304C40.5794 5.25304 38.0236 7.6435 35.1513 11.9065C33.6244 14.1711 32.0566 16.9311 30.2967 20.0452L28.3589 23.4712C24.4664 30.3592 23.4805 31.928 21.5344 34.5172C18.123 39.0512 15.2104 40.7694 11.3756 40.7694C6.82674 40.7694 3.94993 38.8033 2.1686 35.8407C0.714217 33.4265 0 30.259 0 26.6495L6.64272 26.8864Z" fill="#444444"/>
<path d="M5.2373 7.96167C8.283 3.27664 12.6778 0 17.7187 0C20.6383 0 23.5403 0.862439 26.5708 3.33203C29.8856 6.03204 33.4187 10.4783 37.8265 17.8062L39.4073 20.4357C43.2224 26.7797 45.3932 30.0432 46.6636 31.5825C48.2976 33.5589 49.4419 34.148 50.9282 34.148C54.6987 34.148 55.6397 30.6901 55.6397 26.7327L61.4997 26.5491C61.4997 30.6857 60.6829 33.7253 59.2927 36.1268C57.9495 38.4491 55.3317 40.7694 50.9282 40.7694C48.1907 40.7694 45.7656 40.1759 43.0836 37.6507C41.0219 35.7127 38.6116 32.2696 36.7573 29.1745L31.2415 19.979C28.4742 15.3642 25.9354 11.9236 24.4664 10.3651C22.8861 8.6896 20.8542 6.66598 17.612 6.66598C14.9879 6.66598 12.7593 8.50403 10.8943 11.315L5.2373 7.96167Z" fill="#444444"/>
<path d="M17.6121 6.66598C14.988 6.66598 12.7593 8.50402 10.8944 11.315C8.25758 15.2875 6.64272 21.2042 6.64272 26.8864C6.64272 29.2301 7.15826 31.0296 7.83188 32.1181L2.1686 35.8407C0.714217 33.4265 0 30.259 0 26.6495C0 20.0857 1.80512 13.2447 5.23759 7.96167C8.28328 3.27664 12.6781 0 17.719 0L17.6121 6.66598Z" fill="#444444"/>
</g>
<defs>
<clipPath id="clip0_59_23009">
<rect width="61.5" height="41" fill="white"/>
</clipPath>
</defs>
</svg>
