<svg width="41" height="41" viewBox="0 0 41 41" fill="none" xmlns="http://www.w3.org/2000/svg">
<path d="M20.5003 3.41669C18.2569 3.41669 16.0355 3.85856 13.9628 4.71708C11.8902 5.5756 10.0069 6.83395 8.42059 8.42028C5.21684 11.624 3.41699 15.9692 3.41699 20.5C3.41699 28.0509 8.31991 34.4571 15.102 36.7292C15.9562 36.8659 16.2295 36.3363 16.2295 35.875V32.9879C11.4974 34.0129 10.4895 30.6988 10.4895 30.6988C9.70366 28.7171 8.59324 28.1875 8.59324 28.1875C7.03866 27.1284 8.71283 27.1625 8.71283 27.1625C10.4212 27.2821 11.3266 28.9221 11.3266 28.9221C12.8128 31.5188 15.3241 30.75 16.2978 30.34C16.4516 29.2296 16.8957 28.4779 17.3741 28.0509C13.5816 27.6238 9.60116 26.1546 9.60116 19.6459C9.60116 17.7496 10.2503 16.2292 11.3607 15.0163C11.1899 14.5892 10.592 12.8125 11.5316 10.5063C11.5316 10.5063 12.9666 10.045 16.2295 12.2488C17.5791 11.8729 19.0482 11.685 20.5003 11.685C21.9524 11.685 23.4216 11.8729 24.7712 12.2488C28.0341 10.045 29.4691 10.5063 29.4691 10.5063C30.4087 12.8125 29.8107 14.5892 29.6399 15.0163C30.7503 16.2292 31.3995 17.7496 31.3995 19.6459C31.3995 26.1717 27.402 27.6067 23.5924 28.0338C24.2074 28.5634 24.7712 29.6054 24.7712 31.1942V35.875C24.7712 36.3363 25.0445 36.8829 25.9157 36.7292C32.6978 34.44 37.5837 28.0509 37.5837 20.5C37.5837 18.2566 37.1418 16.0352 36.2833 13.9625C35.4248 11.8899 34.1664 10.0066 32.5801 8.42028C30.9937 6.83395 29.1105 5.5756 27.0378 4.71708C24.9652 3.85856 22.7437 3.41669 20.5003 3.41669Z" fill="#444444"/>
</svg>
