<svg width="35" height="35" viewBox="0 0 35 35" fill="none" xmlns="http://www.w3.org/2000/svg">
<path fill-rule="evenodd" clip-rule="evenodd" d="M4.83301 11.5001C4.83301 10.3956 5.72844 9.50014 6.83301 9.50014L11.083 9.50014C11.6353 9.50014 12.083 9.94786 12.083 10.5001C12.083 11.0524 11.6353 11.5001 11.083 11.5001L6.83301 11.5001L6.83301 28.1668L28.1663 28.1668L28.1663 11.5001L23.9163 11.5001C23.3641 11.5001 22.9163 11.0524 22.9163 10.5001C22.9163 9.94786 23.3641 9.50014 23.9163 9.50014L28.1663 9.50014C29.2709 9.50014 30.1663 10.3956 30.1663 11.5001L30.1663 28.1668C30.1663 29.2714 29.2709 30.1668 28.1663 30.1668L6.83301 30.1668C5.72844 30.1668 4.83301 29.2714 4.83301 28.1668L4.83301 11.5001ZM16.4997 3.58088L16.4997 19.8333C16.4997 20.3856 16.9474 20.8333 17.4997 20.8333C18.052 20.8333 18.4997 20.3856 18.4997 19.8333L18.4997 3.58088L22.0426 7.12377C22.4331 7.51429 23.0663 7.51429 23.4568 7.12377C23.8473 6.73325 23.8473 6.10008 23.4568 5.70956L18.2068 0.459557C18.0192 0.272021 17.7649 0.166664 17.4997 0.166664C17.2345 0.166664 16.9801 0.272021 16.7926 0.459557L11.5426 5.70956C11.152 6.10008 11.152 6.73325 11.5426 7.12377C11.9331 7.51429 12.5663 7.51429 12.9568 7.12377L16.4997 3.58088Z" fill="#020617"/>
</svg>
