<svg width="35" height="33" viewBox="0 0 35 33" fill="none" xmlns="http://www.w3.org/2000/svg">
<path fill-rule="evenodd" clip-rule="evenodd" d="M17.022 3.30198L14.2449 9.97903C13.5968 11.5371 12.1316 12.6016 10.4495 12.7365L3.24109 13.3144L8.73315 18.0189C10.0147 19.1167 10.5744 20.8392 10.1828 22.4806L8.50492 29.5148L14.6763 25.7453C16.1164 24.8657 17.9276 24.8657 19.3676 25.7453L25.5391 29.5148L23.8611 22.4806C23.4696 20.8392 24.0293 19.1167 25.3108 18.0189L30.8029 13.3144L23.5945 12.7365C21.9124 12.6016 20.4472 11.5371 19.7991 9.97903L17.022 3.30198ZM18.8686 1.23194C18.1854 -0.410647 15.8585 -0.410645 15.1754 1.23194L11.9365 9.01895C11.6485 9.71142 10.9973 10.1846 10.2497 10.2445L1.843 10.9185C0.0696952 11.0606 -0.649356 13.2736 0.701718 14.431L7.10676 19.9176C7.67634 20.4055 7.92508 21.171 7.75107 21.9005L5.79422 30.1041C5.38145 31.8345 7.26395 33.2023 8.78215 32.2749L15.9795 27.8788C16.6195 27.4879 17.4245 27.4879 18.0645 27.8788L25.2618 32.2749C26.78 33.2023 28.6625 31.8345 28.2498 30.1041L26.2929 21.9005C26.1189 21.171 26.3676 20.4055 26.9372 19.9176L33.3423 14.431C34.6933 13.2736 33.9743 11.0606 32.201 10.9185L23.7942 10.2445C23.0467 10.1846 22.3954 9.71142 22.1074 9.01895L18.8686 1.23194Z" fill="#020617"/>
</svg>
